<?xml version="1.0" encoding="utf-8"?>
<!-- Generator: $$$/GeneralStr/196=Adobe Illustrator 27.6.0, SVG Export Plug-In . SVG Version: 6.00 Build 0)  -->
<svg version="1.1" id="图层_1" xmlns="http://www.w3.org/2000/svg" xmlns:xlink="http://www.w3.org/1999/xlink" x="0px" y="0px"
	 viewBox="0 0 512 512" style="enable-background:new 0 0 512 512;" xml:space="preserve">
<style type="text/css">
	.st0{clip-path:url(#SVGID_00000145039465152923658390000006527824288384495524_);fill:#FF0000;}
	.st1{clip-path:url(#SVGID_00000145039465152923658390000006527824288384495524_);}
	.st2{fill:#FFFFFF;}
</style>
<g>
	<defs>
		<rect id="SVGID_1_" width="512" height="512"/>
	</defs>
	<clipPath id="SVGID_00000075846167056238938230000017876381755455994810_">
		<use xlink:href="#SVGID_1_"  style="overflow:visible;"/>
	</clipPath>
	<path style="clip-path:url(#SVGID_00000075846167056238938230000017876381755455994810_);fill:#FF0000;" d="M-46.44,418.72
		c0.82-0.87,1.67-1.71,2.58-2.49c2.53-2.14,5.99-1.85,7.85,1.01c0.39,0.61,0.75,1.22,1.08,1.85c0.13-0.06,0.25-0.14,0.39-0.19
		c2.15-0.89,4.31,0.45,5.49,2.21c2.72-0.09,5.71,1.98,5.59,4.99c-0.23,5.37-0.83,10.7-1.45,16.03c1.18-0.12,2.39,0.22,3.4,0.87
		c0.01-2.28,0-4.56-0.03-6.84c-0.22-17.83-1.51-35.69-2.77-53.47c-2.01-28.33-4.89-56.64-9.75-84.62
		c-2.3,12.15-3.31,24.58-5.23,36.83c-3.13,19.9-6.73,39.73-10.64,59.5c0.07,0.23,0.15,0.45,0.19,0.7
		C-48.43,402.94-47.37,410.82-46.44,418.72z"/>
	<path style="clip-path:url(#SVGID_00000075846167056238938230000017876381755455994810_);fill:#FF0000;" d="M-82.12,0
		c-0.02,14.78-1.14,29.7-1.96,44.29c-0.29,5.22-0.62,10.44-1.01,15.66c0.06,3.79,0.11,7.57,0.17,11.36c2,0.46,3.71,2.02,3.71,4.68
		c0,10.5,0.02,21.02,0,31.55v65.08c0.86,0.57,1.53,1.52,1.8,2.92c1.46,7.58,2.06,15.19,2.2,22.81c0.42,0.11,0.83,0.29,1.21,0.51
		c-2.18-23.35-3.98-46.73-4.12-70.18c-0.17-29.25,6.13-59.78-1.41-88.54c-1.64-6.24,8.01-8.88,9.64-2.66
		c4.33,16.51,4.17,33.83,3.41,50.76c-0.77,16.98-1.91,33.84-1.47,50.85c1.81,70.18,16.68,139.9,11.19,210.27
		c-1.28,16.4-4.27,32.34-8.33,48.26c-3.47,13.6-7.32,27.13-10.06,40.9c-0.02,2.38-0.07,4.76-0.15,7.14c1.3,0.4,2.41,1.31,2.91,2.77
		c0.83-7.12,1.89-14.22,3.15-21.28c0.26-1.47,0.99-2.45,1.93-3.01c0.39-1.77,0.79-3.53,1.24-5.3c0.46-1.84,1.87-2.97,3.47-3.38
		c1.76-7.81,3.44-15.65,5-23.51c3.99-20.15,7.66-40.37,10.83-60.66c2.97-19.02,3.71-38.32,10.76-56.44c1.62-4.17,8.52-5.29,9.64,0
		c4.18,19.69,7.24,39.59,9.6,59.57c3.1,26.2,5.59,52.79,6.68,79.31c1.96,0.19,3.82,1.37,4.3,3.54c1.32,5.97,2.06,11.97,2.41,17.97
		L643.94,0H-82.12z"/>
	<path style="clip-path:url(#SVGID_00000075846167056238938230000017876381755455994810_);" d="M640,0v512h-768"/>
	<g style="clip-path:url(#SVGID_00000075846167056238938230000017876381755455994810_);">
		<path class="st2" d="M88.4,176.8h0.4c0.93,0,1.67,0.93,2.2,2.8c0.67,2.4,1.53,3.67,2.6,3.8v0.4c0,0.53,0.6,1.07,1.8,1.6
			c1.2,0,2.47,1.4,3.8,4.2c1.6,3.33,3.13,5.47,4.6,6.4c-1.47,2.93-2.33,7.2-2.6,12.8c-0.53,0.93-0.93,2.2-1.2,3.8
			c0.4,3.07,0.8,6.07,1.2,9c0,1.07-0.47,3.27-1.4,6.6c-1.2,4-2.4,6.53-3.6,7.6h-9c-0.93-2.27-1.4-6-1.4-11.2
			c0.13-2.8,0.2-5.6,0.2-8.4c-0.4-7.07-0.87-14.2-1.4-21.4C85.13,188.14,86.4,182.14,88.4,176.8z M174.4,64.2h0.8
			c1.73,0,3.8,0.47,6.2,1.4c2.4,0.93,4.67,1.4,6.8,1.4h1.2c0.53,0,1.07-0.07,1.6-0.2c0.27,1.2,0.6,2.27,1,3.2
			c1.07,2.67,1.6,4.93,1.6,6.8c-1.33,1.07-3.13,1.6-5.4,1.6c-0.8,0-1.67-0.07-2.6-0.2c-2,0.13-3.4,1.07-4.2,2.8
			c-0.93,2.13-1.8,4.6-2.6,7.4c-0.27,0.67-0.8,1.47-1.6,2.4c-1.33,1.47-2,3-2,4.6c0,0.67,0.13,1.4,0.4,2.2c-2.67,0.93-4,2.6-4,5
			c1.6,1.6,4.93,2.73,10,3.4c0.4,0,1.33,0.13,2.8,0.4c1.33,2,3.33,4,6,6c2.67,2,4.13,4.8,4.4,8.4c0,1.6-0.4,3.6-1.2,6
			c-0.13,0.4-0.63,0.93-1.5,1.6c-0.87,0.67-1.3,1.27-1.3,1.8c0.13,0.8,0.23,1.57,0.3,2.3c0.07,0.73-0.4,1.4-1.4,2
			c-1,0.6-1.47,1.2-1.4,1.8c0.07,0.6,0.1,1.17,0.1,1.7c0,0.27-0.6,0.73-1.8,1.4c-2.67,1.47-4,3-4,4.6c0,1.33-0.73,2.27-2.2,2.8
			c-1.2,0.4-1.8,1.07-1.8,2c0.13,0.27,0.2,0.47,0.2,0.6c0,0.67-1.27,2.2-3.8,4.6c-0.4,0.4-3.13,2.87-8.2,7.4
			c-6.8,0-10.73,1.8-11.8,5.4c-0.53-0.13-1.13-0.2-1.8-0.2h-1.4c-1.6,0-2.77,0.23-3.5,0.7c-0.73,0.47-1.1,1.37-1.1,2.7
			c0,2.13,0.47,3.2,1.4,3.2c0.67,0,1.4-0.2,2.2-0.6l1.6-0.8c1.87-0.8,3.97-1.2,6.3-1.2c2.33,0,6.9-0.4,13.7-1.2
			c9.07-1.07,16.33-1.6,21.8-1.6c5.87,0.53,11.2,1.4,16,2.6c2.13,0.13,3.96,0.33,5.5,0.6c1.53,0.27,3.5,2.2,5.9,5.8h0.8
			c0.93,0,2.27,0.67,4,2c2,1.6,3,3.1,3,4.5s-0.2,2.97-0.6,4.7c-1.07,4-2.27,7.47-3.6,10.4c-0.67,1.47-1.07,2.4-1.2,2.8
			c-0.4,1.07-1.53,2.4-3.4,4c-3.33,2.8-5.13,5.67-5.4,8.6c-4.13,2.13-8.04,5.3-11.7,9.5c-3.67,4.2-6.97,6.57-9.9,7.1
			c-1.33,0-2.6-0.4-3.8-1.2c0.27-5.2,3.2-8.93,8.8-11.2c-0.13-0.27-0.2-0.6-0.2-1c0-0.93,0.67-2.07,2-3.4c1.33-1.33,2-2.53,2-3.6
			c0-0.53,0.47-1.73,1.4-3.6c1.6-3.2,2.4-5.47,2.4-6.8v-1.8c0-0.67,0.4-1.13,1.2-1.4c1.6-0.67,2.4-3.33,2.4-8
			c0-4.13-0.54-6.73-1.6-7.8c-0.67-0.67-2.27-1-4.8-1h-3c-2.13,0-4.6-0.53-7.4-1.6c-2.8-1.07-5.07-1.6-6.8-1.6
			c-6.53,0-15.4,0.8-26.6,2.4c-7.33,1.07-11.8,1.67-13.4,1.8c-1.87,1.47-2.8,4.87-2.8,10.2c0,2.4,0.13,3.93,0.4,4.6
			c0.53,1.33,1.67,2,3.4,2c2.13,0,4.47-1,7-3c5.07-4,12.27-6,21.6-6h5c0,0.8,0.33,2.13,1,4c1.2,3.33,1.8,5.8,1.8,7.4
			c0,0.53-0.33,1.6-1,3.2c-1.07,2.67-1.6,4.6-1.6,5.8c0.13,0.8,0.2,1.53,0.2,2.2c0,1.47-0.47,2.67-1.4,3.6l-1,0.8
			c0.27,0.4-0.4,2.27-2,5.6c-1.6,3.33-4,5.27-7.2,5.8c-0.67,0-1.54-0.2-2.6-0.6c-3.73-1.33-5.6-3.13-5.6-5.4c0-0.67,0.33-1.33,1-2
			c3.33-4,5.6-6.33,6.8-7c0.93-0.67,1.4-2.13,1.4-4.4c0-3.47-0.93-5.93-2.8-7.4c-4.27,0.13-7.67,1.27-10.2,3.4l-4.2,2.6
			c-1.07,0.53-2.67,1.07-4.8,1.6v1c0,1.87-1.27,2.8-3.8,2.8c-0.27,2.13-0.67,4.17-1.2,6.1c-0.54,1.93-1.8,2.97-3.8,3.1
			c-1.73,0-3.57-1.37-5.5-4.1c-1.93-2.73-2.9-4.77-2.9-6.1c0.27-2.67,0.47-5.4,0.6-8.2v-4.8c0-1.6,0.33-3.67,1-6.2
			c0.53-2,0.8-3.4,0.8-4.2c0-2.67-1.93-4-5.8-4c-2,0-5.4,0.53-10.2,1.6c-3.6,0.8-6.07,1.2-7.4,1.2c-0.27-0.27-0.4-0.77-0.4-1.5
			c0-0.73,0.8-1.3,2.4-1.7c1.33-0.27,1.97-0.77,1.9-1.5c-0.07-0.73-0.17-1.5-0.3-2.3c0-0.53,0.2-0.8,0.6-0.8h1
			c0.8,0,1.2-0.2,1.2-0.6l-0.2-0.6c0.67,0.13,1.33,0.2,2,0.2h2c2.67,0,5.07-0.2,7.2-0.6c2.13,0,3.83-0.2,5.1-0.6
			c1.27-0.4,1.9-2.07,1.9-5c0-2.93-1.07-4.4-3.2-4.4c-1.73,0-4.07,0.27-7,0.8c-4.4,0.8-7.07,1.87-8,3.2c-2.93-1.6-4.93-2.8-6-3.6
			c-1.07-0.8-1.6-1.4-1.6-1.8c0-0.4-0.8-0.8-2.4-1.2c-1.87-0.4-2.77-0.93-2.7-1.6c0.07-0.67,0.1-1.4,0.1-2.2c0-0.4-0.2-1-0.6-1.8
			c-0.8-1.73-1.2-3.6-1.2-5.6c0-2.53,0.53-3.8,1.6-3.8v-2.2c0-2.13-0.07-4.27-0.2-6.4V139c0-0.4,0.13-0.6,0.4-0.6
			c0.67,0.13,1.33,0.2,2,0.2c0.27,0,0.43-0.1,0.5-0.3c0.07-0.2,0.03-0.43-0.1-0.7l0.2-0.8c0.93-3.33,2.67-5,5.2-5
			c0.8,0,1.2,0.67,1.2,2c0,0.53-0.07,1.07-0.2,1.6c0,1.6,1.13,2.67,3.4,3.2c1.6,0.4,2.6,0.8,3,1.2c0.13,2.4,1.13,5.27,3,8.6
			c2.13,3.87,3.73,7.33,4.8,10.4l0.4-0.2c0.53,0,1.07,0.6,1.6,1.8c0.67,1.47,1.4,2.2,2.2,2.2c0.4,0,1.2-0.47,2.4-1.4
			c2.13-1.73,4-2.6,5.6-2.6c0.93,0,1.6,0.07,2,0.2c0.27-5.33,1.47-11.67,3.6-19c-1.07-0.93-2.4-1.4-4-1.4c-3.07,0.53-6.13,1-9.2,1.4
			c-0.67,0-1-0.2-1-0.6v-1.4c0-1.6,0.8-3,2.4-4.2c0.27-0.4,1.27-1.53,3-3.4c2-2.13,4.8-3.33,8.4-3.6c0.67,0.13,1.27,0.2,1.8,0.2
			c0.8-0.4,1.2-1.4,1.2-3c0-0.27-0.07-0.53-0.2-0.8c0-1.47,0.07-2.4,0.2-2.8c0.27-0.8,1-1.2,2.2-1.2c0.67,0,1.13,0.6,1.4,1.8
			c0.4,1.47,1.13,2.2,2.2,2.2h0.4v1c0.13,1.2,0.27,2.33,0.4,3.4c0,1.33-0.53,2-1.6,2c1.87,3.6,3.33,5.4,4.4,5.4
			c0.27,0,0.53-0.07,0.8-0.2c1.07,0,1.6,0.23,1.6,0.7c0,0.47-0.07,0.83-0.2,1.1c0,1.33,0.27,2,0.8,2h0.4c-1.33,4.4-3.27,7.2-5.8,8.4
			c-2,1.2-3.07,2.73-3.2,4.6c0,1.07,0.67,1.6,2,1.6c2.67-0.53,4.47-1.07,5.4-1.6c0.8,0,1.67,0.33,2.6,1c1.2,0.93,2.6,1.4,4.2,1.4
			c0.8,0,1.2-0.7,1.2-2.1s-0.07-2.83-0.2-4.3c0-0.67,0.73-1.53,2.2-2.6c2.4-1.87,3.6-3.8,3.6-5.8c0-0.53,0.4-1.13,1.2-1.8
			c1.47-1.2,2.73-2.73,3.8-4.6c0.27-0.4,0.77-1.33,1.5-2.8c0.73-1.47,1.17-3.93,1.3-7.4c0-1.87-0.6-3.47-1.8-4.8
			c-0.53-0.53-1.07-0.8-1.6-0.8h-1c-0.67,0-1-0.1-1-0.3c0-0.2-0.07-0.43-0.2-0.7c-0.13-0.27-0.6-0.4-1.4-0.4
			c-1.6,0.13-3.2,0.2-4.8,0.2c-2.53-0.27-5.07-0.53-7.6-0.8c-1.47,0-4.2,0.67-8.2,2c-2.53-0.4-5.07-0.87-7.6-1.4
			c-3.07,0.4-6.47,1.33-10.2,2.8c-0.4,0.13-1.6-0.27-3.6-1.2c-2-0.93-3-1.87-3-2.8c0-0.67,0.07-1.13,0.2-1.4
			c-0.13-0.27-0.2-0.67-0.2-1.2c0-1.07,0.73-1.6,2.2-1.6c0.93,0.13,1.8,0.2,2.6,0.2c0.27,0,0.47-0.07,0.6-0.2c0-0.53,0.4-0.87,1.2-1
			c1.2,0.13,2.37,0.2,3.5,0.2c1.13,0,2.37-0.4,3.7-1.2c2.13-1.2,4.93-1.87,8.4-2c2.67-0.13,4.73-0.4,6.2-0.8
			c0.13-0.53,0.23-0.9,0.3-1.1c0.07-0.2,0.43-0.3,1.1-0.3c3.6-0.8,6.27-3.47,8-8c1.73-4.93,3.27-9.47,4.6-13.6c-0.93-2-3.67-3-8.2-3
			c-2,0-4.13,0.33-6.4,1c-1.87,0.53-3.2,0.8-4,0.8c-0.8,0-1.6-0.07-2.4-0.2c-4.27,0.13-7.3,1-9.1,2.6c-1.8,1.6-3.3,3.27-4.5,5
			c0.13,0.67,0.2,1.33,0.2,2v2c0,3.2-0.4,5.93-1.2,8.2c-0.8,2.27-1.87,3.4-3.2,3.4c-2.4,0-3.6-1.8-3.6-5.4c0-3.2-0.43-5.53-1.3-7
			c-0.87-1.47-2.03-2.4-3.5-2.8c-3.2-0.53-6.67-1.47-10.4-2.8c0-2.13,2.93-3.8,8.8-5c3.2-0.67,4.77-1.3,4.7-1.9
			c-0.07-0.6-0.23-1.23-0.5-1.9v-0.4c-0.93-0.13-1.67-0.93-2.2-2.4c-0.4-1.07-0.6-1.87-0.6-2.4c0-1.73,0.13-2.93,0.4-3.6
			c0.4-1.07,1.2-1.6,2.4-1.6c1.73,0.13,2.93,0.8,3.6,2c0.67,1.2,1.33,2.53,2,4c0.8,1.87,2.53,2.87,5.2,3c2,0,6.87-0.87,14.6-2.6
			c0.27-0.13,1.73-0.27,4.4-0.4c12.67-0.53,19-2.4,19-5.6c-0.13-0.8-0.27-1.6-0.4-2.4L174.4,64.2z"/>
		<path class="st2" d="M297.2,197.2c0-0.93-0.33-2.33-1-4.2c-0.67-1.87-1-3.33-1-4.4c0-2.93,0.73-5.2,2.2-6.8l2-4.8
			c0.67-0.4,1-1.07,1-2l0.4-4.2l-1.2-13.8c0.13-0.8,0.2-1.6,0.2-2.4c-0.8-0.8-1.2-1.6-1.2-2.4c0-1.07,0.27-2,0.8-2.8
			c0.53-0.8,1.27-1.2,2.2-1.2c1.2,0,2.13,0.93,2.8,2.8c0.53,1.47,0.8,3,0.8,4.6l2.4,4.8c2.27,4.67,3.47,7.2,3.6,7.6
			c1.07,2.8,1.67,5.6,1.8,8.4c0,1.73-0.27,4.07-0.8,7c-0.67,3.73-1,6.53-1,8.4c-0.53,1.33,0.27,2.6,2.4,3.8
			c1.87-2.67,3.93-4.67,6.2-6l3.2-3.6l3.4-1.4c2.27-1.73,3.73-3.07,4.4-4l2-2.6c0.4-0.4,0.87-0.6,1.4-0.6l1.2,0.4
			c4.4-1.33,8.4-3.6,12-6.8c2.93-2.67,5.27-5.73,7-9.2c-1.73-3.6-3.47-7.2-5.2-10.8c0.13-0.27,0.2-0.6,0.2-1
			c-0.4-2-0.8-4.07-1.2-6.2c0-2.67,0.67-5.6,2-8.8c1.47-3.6,3.13-5.4,5-5.4c1.07,0,1.6,0.6,1.6,1.8c-0.27,1.73-0.6,3.47-1,5.2
			c0,5.2,0.27,9.07,0.8,11.6l2.4,7.2c0,1.6,0.67,2.4,2,2.4c0.93,0,2.67-1.53,5.2-4.6c0.27-0.4,0.73-0.93,1.4-1.6
			c1.2-1.33,3.2-2.6,6-3.8c2-0.8,3-1.93,3-3.4c-0.53-2.53-1.13-5.07-1.8-7.6c0-1.73,0.87-2.87,2.6-3.4c0.8-0.27,2.27-0.4,4.4-0.4
			c1.73,0,3.4,0.2,5,0.6h3.4c6,0,10.07,0.67,12.2,2c1.6,1.07,2.4,2.47,2.4,4.2c-0.27,2.93-1.87,5.07-4.8,6.4
			c-3.87,1.73-6.8,3.07-8.8,4c-0.27,0.67-2.93,2.07-8,4.2c-4.67,2-7.8,3.47-9.4,4.4l-2.8,2.8l-2.8,2.2l-3.2,1.8v1.6
			c0,3.33,2.53,8.33,7.6,15c2.13,2.8,3.43,4.7,3.9,5.7c0.47,1,1.77,2.5,3.9,4.5c2.13,2,3.8,3.93,5,5.8c1.07,0,2.2,0.97,3.4,2.9
			c1.2,1.93,2.27,3.17,3.2,3.7l3.6,3.4l4.6,2.6c0.8,0.8,1.67,1.2,2.6,1.2c0.67,0,1.4-0.2,2.2-0.6c0.8,0.13,1.6,0.2,2.4,0.2h2.4
			c1.2-0.4,2.43-1.5,3.7-3.3c1.27-1.8,2.1-3.57,2.5-5.3c-0.27-0.4-0.4-1.67-0.4-3.8c0-3.07,0.87-4.6,2.6-4.6
			c2.4,0,5.8,1.93,10.2,5.8c4.67,4.13,7,7.87,7,11.2c-0.54,3.2-1.07,6.33-1.6,9.4c0.27,2.53,0.53,5,0.8,7.4c0,1.6-0.4,2.93-1.2,4
			c-0.93,1.33-2.2,2-3.8,2L428,234c-1.6,0.4-3,0.6-4.2,0.6c-0.4,0-0.87-0.07-1.4-0.2l-7.6-1c-0.93,0-2.73-0.33-5.4-1L406,231
			c-1.07-1.47-2.87-2.47-5.4-3c-1.07-0.27-2-0.53-2.8-0.8c-2.8-0.93-6.87-4.07-12.2-9.4c-6.13-6.13-10.13-11.8-12-17l-3.6-5.6
			c-3.07-6.67-5.73-13-8-19c-1.47-3.47-3.27-5.27-5.4-5.4c-1.6,0-2.8,1.07-3.6,3.2l-3.6,3.4l-3.8,3.8l-3.8,5.2
			c-1.47,0.93-2.87,2.2-4.2,3.8c-1.6,2-3.13,3.27-4.6,3.8c-1.73,0.4-4.73,3.33-9,8.8c-1.07,1.33-1.73,2.13-2,2.4l-9.4,11.6
			c-0.53,3.47-2.07,5.2-4.6,5.2c-2,0-3.6-0.73-4.8-2.2s-1.8-3.33-1.8-5.6V213c-0.4-0.67-0.93-1.53-1.6-2.6
			c-1.33-1.87-1.97-3.63-1.9-5.3c0.07-1.67,0.17-3.37,0.3-5.1C298.2,198.54,297.87,197.6,297.2,197.2z M368,70.2
			c0.13,0.67,0.2,1.27,0.2,1.8c0,3.33-2,6.07-6,8.2c-0.27,0.13-0.93,0.87-2,2.2c-1.47,1.73-2.8,3-4,3.8
			c-2.67,2.93-4.4,6.47-5.2,10.6c1.73,2.67,4.2,4.33,7.4,5c0.53,0,1.07-0.07,1.6-0.2c4.67,0,8.67,0.67,12,2
			c4.13,1.73,6.4,4.2,6.8,7.4c-0.27,1.87-0.93,3.2-2,4c-0.53,0.4-1.67,0.8-3.4,1.2c-0.67,0.27-1.8,0.87-3.4,1.8
			c-2.27,1.47-3.7,2.2-4.3,2.2c-0.6,0-1.1-0.2-1.5-0.6l-3.4,1.4l-14-0.6c-1.07,0.27-1.73,0.4-2,0.4c-2.53,0-4.2-0.53-5-1.6
			c-0.53-0.67-0.8-2-0.8-4c0-2.4,0.2-4.93,0.6-7.6c-0.13-0.27-0.2-1.27-0.2-3c0.53-2.8,1-5.6,1.4-8.4V95c1.47-2,2.4-5.2,2.8-9.6
			c0.13-2.13,0.27-3.4,0.4-3.8c-0.8-0.8-1.67-1.2-2.6-1.2c-2.8,0.67-5.6,1.27-8.4,1.8c-2.8,0-5.17-0.47-7.1-1.4
			c-1.93-0.93-2.9-2.2-2.9-3.8c0-1.87,1.47-2.8,4.4-2.8h1.2l5.6-1.4l4.2-0.6c0.53-0.27,2.07-0.73,4.6-1.4l7.8-2.8
			c0.8,0,1.53-0.07,2.2-0.2c2.27,0.13,4.47,0.2,6.6,0.2h1.6C363.87,68,366.13,68.74,368,70.2z"/>
		<path class="st2" d="M200.4,347l1.4,0.8c1.47,0.4,2.2,1.2,2.2,2.4c0,0.67-0.27,1.27-0.8,1.8c-1.07,0.93-2.4,1.4-4,1.4
			c-0.53,0-1-0.07-1.4-0.2c-1.07,0.93-2.27,1.47-3.6,1.6c-0.4,0-0.8-0.07-1.2-0.2c-2.4,0.27-4.87,0.53-7.4,0.8l-2.6-1.2h-1.2
			c-1.33,0.27-2.73,0.47-4.2,0.6c-1.2,0-2.33-0.27-3.4-0.8c-2.4,0.4-6.63,1.67-12.7,3.8c-6.07,2.13-9.97,3.2-11.7,3.2l-0.6-0.2
			c-1.33,2.13-4.93,4-10.8,5.6c-1.73,0.54-2.67,0.8-2.8,0.8H135c-0.4,0-0.6,0.07-0.6,0.2l-0.6-2.2c0.27-0.13,0.6-0.6,1-1.4
			c0.53-1.07,1.27-1.73,2.2-2c-1.6-0.4-3-0.6-4.2-0.6c-3.2,0-7.47,1.47-12.8,4.4c-3.33,1.87-5.73,3-7.2,3.4l-7.8,4l-4.4,2.8
			c-3.07,0-7.27-0.8-12.6-2.4c-6.13-1.87-9.2-3.67-9.2-5.4c0-1.47,0.57-2.6,1.7-3.4c1.13-0.8,2.37-1.2,3.7-1.2c0.8,0,1.8,0.2,3,0.6
			c0-0.4,0.33-0.6,1-0.6c0.27,0,1.73,0.6,4.4,1.8l0.8,0.6l3,0.6c0.27,0,1.8-0.6,4.6-1.8c13.2-5.87,20.53-8.8,22-8.8
			c0.27,0.27,0.8,0.4,1.6,0.4v-0.4c0.53-0.53,1.33-0.87,2.4-1l1.8-0.4c0-0.13,0.5-0.2,1.5-0.2s1.57,0.07,1.7,0.2l2.4-0.6
			c0.8-0.4,1.27-0.67,1.4-0.8h0.8c1.2-0.4,2.33-0.8,3.4-1.2c0.53,0.13,1,0.27,1.4,0.4c0.53-0.4,1.47-0.8,2.8-1.2
			c0.8,0,1.27,0.07,1.4,0.2c1.87-0.8,3-1.73,3.4-2.8c-1.33-1.87-2.13-3.33-2.4-4.4c0.27-0.4,0.67-1.2,1.2-2.4
			c1.73-3.6,3.53-5.53,5.4-5.8l1-2v-1.2c0-1.33,0.33-2.4,1-3.2c-2.27-0.67-4.27-1-6-1c-3.2,0-7.27,1.13-12.2,3.4
			c-3.6,1.73-6.53,2.73-8.8,3c-1.73-0.13-2.6-0.93-2.6-2.4c0-1.73,1.13-3.46,3.4-5.2c0.4-0.4,1.27-1,2.6-1.8l1.2,0.6
			c4.67-3.2,9.67-5.2,15-6c0,0.27,0.6,0.4,1.8,0.4h1.6c0-0.4,0.67-0.6,2-0.6l0.8-0.6c0.13,0.13,0.2,0.27,0.2,0.4
			c0.13-0.13,0.33-0.4,0.6-0.8c0.67-1.07,1.27-1.6,1.8-1.6c0.27,0,0.6,0.4,1,1.2c0.53-1.33,0.8-2.33,0.8-3c0-1.46-0.27-2.73-0.8-3.8
			c-14.13,0.67-32.67,4.8-55.6,12.4c-6.67,4-10.87,6-12.6,6c-4.67-0.53-8.8-1.73-12.4-3.6l-3.4-1.2c-1.2-0.93-1.8-2.27-1.8-4
			c0-2.8,1.73-4.2,5.2-4.2c1.33,0,2.07,0.07,2.2,0.2c0.27-0.13,0.87-0.2,1.8-0.2h3.2l0.6-1.2l9.2-2.6c0.67,0,1,0.13,1,0.4
			c0.4-0.4,1.27-0.6,2.6-0.6l0.4-0.4l4.6-0.6c0.53,0,1.07-0.13,1.6-0.4c0,0.27,0.4,0.4,1.2,0.4c2.67-2.67,6.93-4,12.8-4
			c1.73,0,2.67,0.07,2.8,0.2l1.2-0.4c0.13-0.13,0.4-0.2,0.8-0.2l1,0.4c1.2-0.4,2.53-0.6,4-0.6h1.4c1.07,0,1.73-0.13,2-0.4
			c0.53,0.13,1.07,0.2,1.6,0.2l4-0.6c4.53-1.6,8.8-2.27,12.8-2c0.8,0.13,1.6,0.2,2.4,0.2c0.53,0,1-0.07,1.4-0.2l0.6-0.2
			c1.73,0,3.13-1.46,4.2-4.4c0.67-1.87,1-3.6,1-5.2c0-2.67-1.53-4-4.6-4c-1.87,0-4.13,0.6-6.8,1.8c-2.67,1.2-4.73,1.8-6.2,1.8
			c-2.27,0-3.4-0.5-3.4-1.5s2.8-4.3,8.4-9.9l2-2l1.6-0.8c0-0.53,0.13-0.8,0.4-0.8c0.8,0,1.27,0.07,1.4,0.2
			c0.53-0.27,2.07-0.73,4.6-1.4c-0.13-1.33-0.27-2.73-0.4-4.2c0.13-0.93,0.27-1.87,0.4-2.8c0-2-0.8-3.67-2.4-5
			c-0.93-0.8-1.4-1.6-1.4-2.4c0-3.47,1.6-5.2,4.8-5.2c3.6,0.27,5.73,1.8,6.4,4.6c0.67,3.07,1.33,5.93,2,8.6
			c0.53,2,1.93,3.07,4.2,3.2h4.4c0.4,0,0.73-0.07,1-0.2c6.53,0,9.8,4.53,9.8,13.6c-0.13,1.87-0.33,3.73-0.6,5.6
			c0.13,1.87,0.6,3.47,1.4,4.8h0.6c0.4,0,0.8,0.2,1.2,0.6c0.13-0.53,0.33-0.8,0.6-0.8h0.4c0.4,0,0.6-0.07,0.6-0.2
			c2.13,1.07,3.67,1.6,4.6,1.6c-1.73,2.8-3.53,4.63-5.4,5.5c-1.87,0.87-3.87,1.7-6,2.5c-3.07,0.8-6.33,3.8-9.8,9
			c0.4,0.13,0.7,0.2,0.9,0.2c0.2,0,0.37-0.07,0.5-0.2c0.93,0.13,1.87,0.27,2.8,0.4c0.27,0,0.67-0.27,1.2-0.8c1.33-1.33,2.46-2,3.4-2
			c0.13,0,0.4,0.2,0.8,0.6c0.53,0,1.07-0.13,1.6-0.4c0.93,0,1.4,0.67,1.4,2c0,2.13-1.8,4-5.4,5.6c-2.8,1.2-5.13,1.8-7,1.8
			c-0.4,0-0.73-0.07-1-0.2c-0.8,0.53-3.87,1.4-9.2,2.6c-0.13-0.13-0.27-0.2-0.4-0.2l-1,0.8l-4.2,9c0.93,0,1.53,0.13,1.8,0.4
			c0.8,0,1.4-0.33,1.8-1c0.53,0,0.8,0.33,0.8,1c2.53-0.93,6-0.13,10.4,2.4c1.87,0,3.47,1.4,4.8,4.2c1.07,2.27,1.6,4.07,1.6,5.4
			c1.07-0.4,2.07-0.8,3-1.2l2.4-0.8c0.67-0.27,1.23-0.37,1.7-0.3c0.47,0.07,0.83,0.1,1.1,0.1c0.93-1.07,2.4-2.13,4.4-3.2
			c0.27,0.67,1.53,1.2,3.8,1.6C198,345.33,199.73,346.07,200.4,347z M195.6,375.6c0.53,0.53,0.77,1.47,0.7,2.8
			c-0.07,1.33-0.23,2.67-0.5,4c0,1.2,0.07,1.87,0.2,2c0,0.54-0.27,1.47-0.8,2.8v1c0,3.2-1.87,6.93-5.6,11.2
			c-0.4,0.54-0.87,1.67-1.4,3.4c-0.67,2.67-1.87,4.73-3.6,6.2l-3,2.8c-1.73,1.73-2.6,3.6-2.6,5.6v1c0,1.33-0.53,3.07-1.6,5.2v0.8
			c-0.27,0.8-0.53,1.6-0.8,2.4l0.6,0.6c0.27,0.67,0.47,1.33,0.6,2c0,0.27-0.07,0.47-0.2,0.6c0.4,0,0.67,0.07,0.8,0.2
			c-0.27,0.53-0.67,0.8-1.2,0.8l-0.6-0.2c-0.8,0.27-1.67,0.53-2.6,0.8c-0.93-0.27-1.87-0.53-2.8-0.8c-2.13,0-3.4,0.33-3.8,1
			c-0.13-0.13-0.87-0.2-2.2-0.2c-0.67,0.13-1.33,0.2-2,0.2h-2c-0.53-0.13-1.07-0.27-1.6-0.4c-1.07,0-2.47,0.33-4.2,1
			c-1.33,0.53-2.27,0.77-2.8,0.7c-0.54-0.07-1.13-0.17-1.8-0.3c-0.8,0.53-1.27,0.8-1.4,0.8c-0.93,0-1.6-0.87-2-2.6
			c0.13,0,0.27-0.07,0.4-0.2c-0.8-0.8-1.2-1.6-1.2-2.4c0-0.53,0.07-0.8,0.2-0.8c-0.4-0.4-0.87-0.6-1.4-0.6c0-0.4,0.2-0.6,0.6-0.6
			c-1.2-0.53-2.47-1.4-3.8-2.6c-2.13-2-4.2-3-6.2-3c-1.2,0-2.07,0.13-2.6,0.4l1,4c-0.53,0.8-0.87,2.07-1,3.8
			c-0.13,1.47-0.53,2.2-1.2,2.2c-0.27,0-0.53-0.07-0.8-0.2c-1.33,0-2,0.2-2,0.6l-1.8-0.6c-2.27-0.8-3.4-2.2-3.4-4.2
			c0-0.8,0.2-1.8,0.6-3c-0.4-4.93-1.07-8.33-2-10.2c0.4-4.53,0.73-9.07,1-13.6c-0.53-1.87-0.8-3.4-0.8-4.6l1.6-10.2
			c1.2-1.6,1.8-3.53,1.8-5.8v-1c0-0.4-0.07-0.87-0.2-1.4c1.2-2.13,3-3.2,5.4-3.2c0.13,1.47,0.27,2.87,0.4,4.2
			c-0.13,1.47-0.27,2.93-0.4,4.4c0.13,0.8,0.2,1.47,0.2,2c0.13,2.93,0.93,4.93,2.4,6l2.4,9c0.93,3.33,1.73,5,2.4,5l0.8-0.8
			c0.4,0.13,0.73,0.2,1,0.2c0-1.2,2.13-3.4,6.4-6.6c2.8-2.13,4.87-3.8,6.2-5c0.8-0.67,1.27-1,1.4-1c1.73,0.13,3.4,0.27,5,0.4
			c0.13-0.27,0.67-0.4,1.6-0.4c0.13,0.13,0.2,0.27,0.2,0.4c0.53-0.13,1-0.27,1.4-0.4c0.4,0.13,0.73,0.2,1,0.2l0.8-0.6
			c0-0.13,0.23-0.2,0.7-0.2c0.47,0,0.7,0.53,0.7,1.6l-0.6,5.2c0.13,0.54,0.2,1,0.2,1.4c0,1.87-1.73,2.8-5.2,2.8h-4.4
			c-2.53,0-5.07,0.87-7.6,2.6c-1.47,1.07-2.73,1.67-3.8,1.8l-1.6-0.2c-0.13-0.13-0.33-0.2-0.6-0.2c-1.6,0-2.4,1-2.4,3
			c0.13,0.53,0.8,3.27,2,8.2c0.4-0.4,0.97-0.6,1.7-0.6c0.73,0,1.43,0.7,2.1,2.1c0.67,1.4,1.23,2.1,1.7,2.1c0.47,0,1.1-0.4,1.9-1.2
			c0.13,0.27,0.2,0.46,0.2,0.6c0.67,0,1-0.2,1-0.6c0.27,0.13,0.53,0.2,0.8,0.2c0.53-0.13,1-0.27,1.4-0.4c0.4,0.13,0.8,0.2,1.2,0.2
			c0.13,0,0.47-0.13,1-0.4l0.6-0.6c0-0.13,0.33-0.2,1-0.2c0.93,0,1.6,0.2,2,0.6c1.73-1.07,3.13-1.6,4.2-1.6c0.4,0.13,0.73,0.2,1,0.2
			l2.8-0.6c0.4,0,0.6-0.2,0.6-0.6c0.27,0.13,0.4,0.3,0.4,0.5s0.2,0.3,0.6,0.3c0-1.6,1.37-3.83,4.1-6.7c2.73-2.87,4.1-4.47,4.1-4.8
			c0-0.33-0.07-0.63-0.2-0.9c1.73-1.33,3.53-4.4,5.4-9.2c1.6-4.13,2.4-6.87,2.4-8.2c0-1.6-0.63-3.17-1.9-4.7
			c-1.27-1.53-2.9-2.3-4.9-2.3c-1.6,0-2.93,0.47-4,1.4c-2.13-0.27-3.6-0.4-4.4-0.4c-2.27,0-6.93,0.53-14,1.6l-8.6,0.6
			c-0.53,0-1.13-0.07-1.8-0.2l-1.8-2.8c-0.4-0.53-0.6-1-0.6-1.4c0-0.93,1.07-1.4,3.2-1.4c1.33,0,2.07,0.27,2.2,0.8
			c0.67-1.33,2.2-2.67,4.6-4c4.93-2.8,11.53-4.2,19.8-4.2c1.2,0.13,2.33,0.27,3.4,0.4c0.4,0,0.87-0.13,1.4-0.4
			c4.13,0,8.4,0.4,12.8,1.2c0.13-0.27,0.53-0.4,1.2-0.4c1.07,0.27,1.67,0.4,1.8,0.4l0.4-0.2c0,0.27,0.33,0.4,1,0.4v0.8
			C194,373.4,194.53,374.54,195.6,375.6z M159.4,348.8c0-1.07,0.13-1.67,0.4-1.8c0-1.6-1.07-2.4-3.2-2.4c-1.2,0-1.93,0.13-2.2,0.4
			c-0.27,0.27-0.4,0.73-0.4,1.4c-0.13,0.13,0,0.93,0.4,2.4l0.4,0.6C156.4,349.27,157.93,349.07,159.4,348.8z M166.2,307.8l-2.4,1
			l-1.4,6.8c1.6,0.4,2.8,1.53,3.6,3.4c1.87-2.93,2.8-5.8,2.8-8.6C168.8,308.67,167.93,307.8,166.2,307.8z M168,287.6l-1.8,2.6
			c0.13,1.07,0.2,2.13,0.2,3.2c0,0.54-0.07,1.07-0.2,1.6c0.13,3.2,0.6,5.13,1.4,5.8c0.8,0.67,1.27,1.07,1.4,1.2h3.8l0.8-1.6
			c0.67-3.2,1.27-6.4,1.8-9.6c0-1.33-1.53-2.2-4.6-2.6C169.33,287.94,168.4,287.74,168,287.6z"/>
		<path class="st2" d="M329,424.2c-0.8,0-1.8,0.33-3,1c-0.93,0.53-1.47,0.8-1.6,0.8c-2.27,0-3.4-1.4-3.4-4.2
			c0-1.07,0.07-1.6,0.2-1.6l-0.6-7c-0.4-0.4-0.6-0.87-0.6-1.4c0.4-0.93,0.73-1.93,1-3c-0.53-3.2-1.13-6.4-1.8-9.6
			c0.13-0.53,0.2-1.13,0.2-1.8c-0.27-1.2-0.8-2.07-1.6-2.6c-0.27,0.13-0.57,0.23-0.9,0.3c-0.33,0.07-0.77-0.17-1.3-0.7
			c-1.6,1.33-3.27,2.67-5,4l-4,2l-4.4,4.6c-1.2,2.27-2.87,3.4-5,3.4c-0.27,0-0.47-0.07-0.6-0.2c-0.8,0-1.43,0.37-1.9,1.1
			c-0.47,0.73-0.7,1.43-0.7,2.1v0.4l-1.8,1.6c-2.67,2.8-5.53,4.2-8.6,4.2c-2.67-0.13-4.13-1.93-4.4-5.4c0-1.6,1.27-3.6,3.8-6
			c0.13-0.13,2.6-2.2,7.4-6.2c1.87-1.6,3.46-3.47,4.8-5.6c1.2-1.87,2.13-3.13,2.8-3.8l5.4-3.2c1.2-2,3.07-4.2,5.6-6.6
			c2.8-2.67,4.67-4.73,5.6-6.2l3.2-4c1.87-1.47,2.8-3.87,2.8-7.2c-0.13-0.53-0.27-1.07-0.4-1.6c0.27-1.73,0.47-3.47,0.6-5.2
			c0-0.8-0.33-2.07-1-3.8l-0.6-4.6c-0.4-2.13-0.87-4.27-1.4-6.4c-0.4,1.47-1.13,2.2-2.2,2.2c-0.53,0-0.93-0.07-1.2-0.2
			c-0.8,0.4-2.93,1.73-6.4,4c-3.47,2.27-5.4,5.07-5.8,8.4c-1.33,0.93-2.33,2.07-3,3.4l-2.8,4.2c-2,3.07-4.2,4.73-6.6,5
			c-2.13,0-4.13-0.67-6-2c-1.6-1.2-2.4-2.27-2.4-3.2V363c-0.8-2.4-1.93-4.93-3.4-7.6c-2-3.73-3.27-6.8-3.8-9.2
			c0.8-1.33,1.6-2.67,2.4-4c0.27-0.53,1.27-1.2,3-2c2.4-1.07,5.13-1.6,8.2-1.6c0.67,0,1.27,0.53,1.8,1.6c0.67,1.6,1.8,2.4,3.4,2.4
			c0.93,0,2-0.6,3.2-1.8l2.4-2.4c0-0.4,0.33-0.6,1-0.6h0.6c0.53-0.27,1.2-0.8,2-1.6c4-4,6.87-6.53,8.6-7.6c3.2-2,7.07-3,11.6-3
			l1.4,0.4c0.67,0,1.27-0.07,1.8-0.2l2.2,2c2,0.93,3.33,2.33,4,4.2c0.4,1.2,0.6,3.13,0.6,5.8c-0.13,2.27-0.27,4.53-0.4,6.8
			c0,3.2,0.53,6.93,1.6,11.2v1.8c0.4,3.07,0.8,6.13,1.2,9.2v3.8c0,1.07-0.03,2.17-0.1,3.3c-0.07,1.13,0.23,2.04,0.9,2.7
			c2.13,5.6,3.33,11.53,3.6,17.8c-0.4,4.93-1.07,9-2,12.2c-1.47,4.67-3.17,8.67-5.1,12C330.17,421.93,329.13,423.8,329,424.2z
			 M331.8,296c-2.93,0-6.07,0.53-9.4,1.6c-4,1.33-6.67,3-8,5c-1.6-0.4-3-1.6-4.2-3.6c-0.93-1.6-1.6-3.33-2-5.2l-1.8-1.2
			c0-0.67-0.07-1.33-0.2-2c0-2.4,0.27-4,0.8-4.8c0.67-1.07,2-1.6,4-1.6l5.2,1h6.2c1.2-0.4,2.53-0.6,4-0.6c5.33,0,8,1.73,8,5.2
			C334.4,291.94,333.53,294,331.8,296z M403.8,325.2c-0.13,0-0.2,0.33-0.2,1c0,1.2,0.73,2.13,2.2,2.8c0.27-0.13,1-0.2,2.2-0.2h2.4
			c2.67,0.13,5.27,0.2,7.8,0.2h1.4c3.2,0.27,4.8,1.73,4.8,4.4c0,0.93-0.2,2.07-0.6,3.4c0.13,0.53,0.2,1,0.2,1.4
			c0,1.33-0.4,2.47-1.2,3.4c-0.67,0.67-2.13,1.27-4.4,1.8c-4.93,1.2-10.73,2.87-17.4,5h-0.2c-0.8,0-2.4,3.47-4.8,10.4
			c-2.4,6.93-4.2,11-5.4,12.2c-0.67,0.4-1.07,0.67-1.2,0.8c-0.4,0.67-0.6,2-0.6,4c0.27,0.8,2.93,1.33,8,1.6c1.07,0,2.8-0.2,5.2-0.6
			c7.2-1.2,12.67-1.8,16.4-1.8c1.73,0.27,3.46,0.53,5.2,0.8c3.2-0.4,6.4-0.8,9.6-1.2c1.73,0,3.3,0.83,4.7,2.5
			c1.4,1.67,2.1,3.17,2.1,4.5c0,1.6-2.8,4.2-8.4,7.8l-9.4,6c-0.8,0.54-1.4,0.8-1.8,0.8c-2.13,0-5.93-0.4-11.4-1.2l-8.2-1.8
			c-3.2-0.53-5.47-0.8-6.8-0.8c-3.87,0.13-7.8,0.27-11.8,0.4c-1.87-0.67-3.2-1.4-4-2.2c-0.53-0.4-1.13-1.2-1.8-2.4
			c0.27-2.27,0.46-4.6,0.6-7c-0.13-0.8-0.27-1.6-0.4-2.4c0-1.07,0.27-1.8,0.8-2.2l0.8-6.4c0-0.13,0.33-0.73,1-1.8
			c3.33-5.2,5-9.43,5-12.7c0-3.27-2.33-4.9-7-4.9H376l-5.4-1.8c-2,0-4,0.2-6,0.6c-0.27-0.13-1-0.2-2.2-0.2
			c-1.73,0.4-3.47,0.73-5.2,1c-2.4,0-3.6-1.07-3.6-3.2c0-0.93,0.93-1.8,2.8-2.6c1.6-0.67,3.2-1.13,4.8-1.4l4-2.6
			c1.87-0.67,3.93-1.8,6.2-3.4c2-1.47,3.4-2.33,4.2-2.6h0.8c1.33,0,2.87-0.53,4.6-1.6l8-1.8c2.67-1.87,4.4-4.4,5.2-7.6
			c0-0.27-0.07-0.53-0.2-0.8c0-1.6,0.47-2.8,1.4-3.6c0-0.13-0.07-0.27-0.2-0.4c0.53-2.27,1.47-4.73,2.8-7.4l0.4-8
			c0.53-1.6,0.93-3.46,1.2-5.6l-0.4-2c0-2.53,1.2-3.93,3.6-4.2c1.73,0.27,2.93,0.67,3.6,1.2c1.2,0.8,1.8,2.2,1.8,4.2v6.6
			c0,0.67,0.07,1.2,0.2,1.6l-1.2,3.2c-0.13,0.13-0.27,0.87-0.4,2.2C406.13,315.67,405.13,320.54,403.8,325.2z"/>
	</g>
</g>
</svg>
